<svg width="20" height="20" viewBox="0 0 20 20" fill="none" xmlns="http://www.w3.org/2000/svg">
<path d="M13.7328 11.4256L13.2 10.9488V6.8C13.2 5.95131 12.8628 5.13737 12.2627 4.53726C11.6626 3.93714 10.8487 3.6 9.99999 3.6C9.1513 3.6 8.33737 3.93714 7.73725 4.53726C7.13713 5.13737 6.79999 5.95131 6.79999 6.8V10.9488L6.26719 11.4256C5.49403 12.1156 4.92789 13.0069 4.63199 14H15.368C15.0721 13.0069 14.506 12.1156 13.7328 11.4256ZM12.4 15.6C12.4 16.2365 12.1471 16.847 11.697 17.2971C11.247 17.7471 10.6365 18 9.99999 18C9.36347 18 8.75302 17.7471 8.30294 17.2971C7.85285 16.847 7.59999 16.2365 7.59999 15.6H2.79999C2.7989 14.5868 3.01218 13.5849 3.42582 12.66C3.83945 11.7351 4.44408 10.9082 5.19999 10.2336V6.8C5.19999 5.52696 5.7057 4.30606 6.60588 3.40589C7.50605 2.50571 8.72695 2 9.99999 2C11.273 2 12.4939 2.50571 13.3941 3.40589C14.2943 4.30606 14.8 5.52696 14.8 6.8V10.2336C15.5559 10.9082 16.1605 11.7351 16.5742 12.66C16.9878 13.5849 17.2011 14.5868 17.2 15.6H12.4ZM9.99999 16.4C10.2122 16.4 10.4156 16.3157 10.5657 16.1657C10.7157 16.0157 10.8 15.8122 10.8 15.6H9.19999C9.19999 15.8122 9.28428 16.0157 9.43431 16.1657C9.58433 16.3157 9.78782 16.4 9.99999 16.4Z" fill="#97A1B2"/>
</svg>
