<svg width="20" height="20" viewBox="0 0 20 20" fill="none" xmlns="http://www.w3.org/2000/svg">
<path d="M11.6957 10L5.73611 4.04037C5.5168 3.8133 5.39545 3.50918 5.39819 3.1935C5.40094 2.87783 5.52756 2.57586 5.75078 2.35263C5.97401 2.12941 6.27598 2.00279 6.59165 2.00005C6.90733 1.9973 7.21145 2.11866 7.43852 2.33797L14.2494 9.1488C14.4751 9.37457 14.6019 9.68075 14.6019 10C14.6019 10.3192 14.4751 10.6254 14.2494 10.8512L7.43852 17.662C7.21145 17.8813 6.90733 18.0027 6.59165 18C6.27598 17.9972 5.97401 17.8706 5.75078 17.6474C5.52756 17.4241 5.40094 17.1222 5.39819 16.8065C5.39545 16.4908 5.5168 16.1867 5.73611 15.9596L11.6957 10Z" fill="#97A1B2"/>
</svg>
