<svg width="457" height="78" viewBox="0 0 457 78" fill="none" xmlns="http://www.w3.org/2000/svg">
<g opacity="0.6" filter="url(#filter0_f_2001_96)">
<path d="M395.143 20.6919L399.178 34.4106L389.494 36.8315L385.459 23.9198L395.143 20.6919Z" fill="#66FF66"/>
<path d="M63.1735 71.554L61.9232 67.6338L64.6697 64.266L59.967 64.1047L58.0108 60.5757L56.3613 64.2581L52.4411 65.5084L55.8088 68.255L55.2564 72.2519L58.7854 70.2957L63.1735 71.554Z" fill="#FF7866"/>
<path d="M302.843 -11.4466L306.215 -3.85331L302.003 3.07718L309.914 1.96536L315.387 8.11087L316.536 -0.117754L323.643 -2.84536L317.357 -6.57176L316.245 -14.4827L310.586 -9.65367L302.843 -11.4466Z" fill="#66FF87"/>
<path d="M433.071 85.6539C436.837 83.502 436.568 81.619 432.264 80.005C427.96 78.9291 427.691 77.0461 431.457 74.3562C435.761 72.2042 435.492 70.5903 430.65 69.5143C426.346 67.9003 426.077 66.0174 429.843 63.8654" stroke="#FFEB66" stroke-width="3" stroke-linecap="round"/>
<path d="M259.69 5.52865C260.661 9.42066 263.2 12.1387 265.362 11.5996C267.525 11.0605 268.491 7.46839 267.52 3.57639C266.55 -0.315612 264.011 -3.03367 261.848 -2.49457C259.686 -1.95547 258.72 1.63665 259.69 5.52865Z" fill="#BF66FF"/>
<path d="M175.644 26.3411L174.03 18.2712L188.556 16.6573L190.17 24.7271L175.644 26.3411Z" fill="#FFA166"/>
<path d="M296.232 61.4803L291.158 64.329L286.844 62.1309L287.888 67.1914L284.605 71.8583L290.018 71.8993L292.514 75.8882L294.712 71.5741L300.139 69.8108L295.472 66.5272L296.232 61.4803Z" fill="#66DBFF"/>
<path d="M127.556 27.5158C124.911 29.169 123.34 31.4284 124.049 32.5623C124.757 33.6962 127.476 33.2752 130.122 31.6219C132.768 29.9687 134.338 27.7093 133.63 26.5754C132.921 25.4415 130.202 25.8625 127.556 27.5158Z" fill="#66FF9E"/>
<path d="M447.597 27.9547L439.527 16.657L446.79 12.6221L454.053 23.9198L447.597 27.9547Z" fill="#FF666B"/>
<path d="M190.977 77.1805L195.012 65.8828L203.889 72.3387L190.977 77.1805Z" fill="#FF7A66"/>
</g>
<defs>
<filter id="filter0_f_2001_96" x="0.160675" y="-228.244" width="455.892" height="426.744" filterUnits="userSpaceOnUse" color-interpolation-filters="sRGB">
<feFlood flood-opacity="0" result="BackgroundImageFix"/>
<feBlend mode="normal" in="SourceGraphic" in2="BackgroundImageFix" result="shape"/>
<feGaussianBlur stdDeviation="1" result="effect1_foregroundBlur_2001_96"/>
</filter>
</defs>
</svg>
