<svg width="20" height="20" viewBox="0 0 20 20" fill="none" xmlns="http://www.w3.org/2000/svg">
<path d="M3.6 15.272C3.6 15.4842 3.51571 15.6877 3.36569 15.8377C3.21566 15.9877 3.01217 16.072 2.8 16.072C2.58783 16.072 2.38434 15.9877 2.23431 15.8377C2.08429 15.6877 2 15.4842 2 15.272V10.4C2 5.98159 5.5816 2.39999 10 2.39999C14.4184 2.39999 18 5.98159 18 10.4V12.8688C18 13.081 17.9157 13.2845 17.7657 13.4345C17.6157 13.5845 17.4122 13.6688 17.2 13.6688C16.9878 13.6688 16.7843 13.5845 16.6343 13.4345C16.4843 13.2845 16.4 13.081 16.4 12.8688V10.4C16.4 8.70261 15.7257 7.07474 14.5255 5.87451C13.3253 4.67428 11.6974 3.99999 10 3.99999C8.30261 3.99999 6.67475 4.67428 5.47452 5.87451C4.27428 7.07474 3.6 8.70261 3.6 10.4V15.272ZM3.6 10.4H5.2C5.62435 10.4 6.03131 10.5686 6.33137 10.8686C6.63143 11.1687 6.8 11.5756 6.8 12V16C6.8 16.4243 6.63143 16.8313 6.33137 17.1314C6.03131 17.4314 5.62435 17.6 5.2 17.6H3.6C3.17565 17.6 2.76869 17.4314 2.46863 17.1314C2.16857 16.8313 2 16.4243 2 16V12C2 11.5756 2.16857 11.1687 2.46863 10.8686C2.76869 10.5686 3.17565 10.4 3.6 10.4ZM3.6 12V16H5.2V12H3.6ZM14.8 10.4H16.4C16.8243 10.4 17.2313 10.5686 17.5314 10.8686C17.8314 11.1687 18 11.5756 18 12V16C18 16.4243 17.8314 16.8313 17.5314 17.1314C17.2313 17.4314 16.8243 17.6 16.4 17.6H14.8C14.3757 17.6 13.9687 17.4314 13.6686 17.1314C13.3686 16.8313 13.2 16.4243 13.2 16V12C13.2 11.5756 13.3686 11.1687 13.6686 10.8686C13.9687 10.5686 14.3757 10.4 14.8 10.4ZM14.8 12V16H16.4V12H14.8Z" fill="#97A1B2"/>
</svg>
