<svg width="54" height="54" viewBox="0 0 54 54" fill="none" xmlns="http://www.w3.org/2000/svg">
<rect width="54" height="54" rx="27" fill="#FEEFE6"/>
<path d="M27 52.65C27 53.3956 27.6048 54.0035 28.3495 53.9663C35.019 53.6328 41.3474 50.8364 46.0919 46.0919C51.1554 41.0284 54 34.1608 54 27C54 19.8392 51.1554 12.9716 46.0919 7.90812C41.3474 3.16363 35.019 0.367219 28.3495 0.0337126C27.6048 -0.00352378 27 0.604416 27 1.35C27 2.09558 27.605 2.69609 28.3495 2.73746C34.3024 3.06832 39.9447 5.57927 44.1827 9.81731C48.7398 14.3744 51.3 20.5552 51.3 27C51.3 33.4448 48.7398 39.6256 44.1827 44.1827C39.9447 48.4207 34.3024 50.9317 28.3495 51.2625C27.605 51.3039 27 51.9044 27 52.65Z" fill="#F69554"/>
<path d="M18.278 32V29.886H13.728V29.018L18.474 22.13H19.44V28.906H20.91V29.886H19.44V32H18.278ZM18.278 28.906V24.02L14.918 28.906H18.278ZM24.9225 32.126C24.4185 32.126 23.9099 32.0187 23.3965 31.804C22.8832 31.5893 22.4632 31.3 22.1365 30.936L22.5705 30.026C22.9065 30.39 23.2752 30.6607 23.6765 30.838C24.0872 31.0153 24.5072 31.104 24.9365 31.104C25.8512 31.104 26.5559 30.7633 27.0505 30.082C27.5452 29.4007 27.7925 28.388 27.7925 27.044V26.344C27.6059 26.96 27.2699 27.4453 26.7845 27.8C26.3085 28.1453 25.7439 28.318 25.0905 28.318C24.5119 28.318 23.9985 28.1873 23.5505 27.926C23.1025 27.6553 22.7525 27.2867 22.5005 26.82C22.2485 26.3533 22.1225 25.8167 22.1225 25.21C22.1225 24.5847 22.2532 24.034 22.5145 23.558C22.7852 23.0727 23.1539 22.6947 23.6205 22.424C24.0965 22.144 24.6425 22.004 25.2585 22.004C26.4252 22.004 27.3212 22.4287 27.9465 23.278C28.5812 24.118 28.8985 25.2987 28.8985 26.82C28.8985 28.5187 28.5485 29.83 27.8485 30.754C27.1485 31.6687 26.1732 32.126 24.9225 32.126ZM25.3285 27.352C25.9539 27.352 26.4625 27.1513 26.8545 26.75C27.2465 26.3393 27.4425 25.812 27.4425 25.168C27.4425 24.5147 27.2465 23.9873 26.8545 23.586C26.4625 23.1753 25.9539 22.97 25.3285 22.97C24.7125 22.97 24.2085 23.1753 23.8165 23.586C23.4245 23.9873 23.2285 24.5147 23.2285 25.168C23.2285 25.812 23.4245 26.3393 23.8165 26.75C24.2085 27.1513 24.7125 27.352 25.3285 27.352ZM32.9351 32.275L32.3081 31.912L36.8731 23.97L37.4891 24.333L32.9351 32.275ZM32.2751 28.898C31.6884 28.898 31.2301 28.689 30.9001 28.271C30.5701 27.853 30.4051 27.27 30.4051 26.522C30.4051 25.774 30.5701 25.1947 30.9001 24.784C31.2301 24.366 31.6884 24.157 32.2751 24.157C32.8544 24.157 33.3091 24.366 33.6391 24.784C33.9764 25.1947 34.1451 25.774 34.1451 26.522C34.1451 27.27 33.9764 27.853 33.6391 28.271C33.3091 28.689 32.8544 28.898 32.2751 28.898ZM32.2751 28.249C32.6124 28.249 32.8801 28.106 33.0781 27.82C33.2761 27.5267 33.3751 27.094 33.3751 26.522C33.3751 25.95 33.2761 25.521 33.0781 25.235C32.8801 24.949 32.6124 24.806 32.2751 24.806C31.9304 24.806 31.6591 24.949 31.4611 25.235C31.2704 25.521 31.1751 25.95 31.1751 26.522C31.1751 27.094 31.2704 27.5267 31.4611 27.82C31.6591 28.106 31.9304 28.249 32.2751 28.249ZM37.5331 32.099C36.9537 32.099 36.4954 31.89 36.1581 31.472C35.8281 31.054 35.6631 30.471 35.6631 29.723C35.6631 28.9823 35.8281 28.403 36.1581 27.985C36.4954 27.567 36.9537 27.358 37.5331 27.358C38.1197 27.358 38.5781 27.567 38.9081 27.985C39.2381 28.403 39.4031 28.9823 39.4031 29.723C39.4031 30.471 39.2381 31.054 38.9081 31.472C38.5781 31.89 38.1197 32.099 37.5331 32.099ZM37.5331 31.45C37.8777 31.45 38.1454 31.307 38.3361 31.021C38.5341 30.7277 38.6331 30.295 38.6331 29.723C38.6331 29.151 38.5341 28.722 38.3361 28.436C38.1454 28.15 37.8777 28.007 37.5331 28.007C37.1957 28.007 36.9281 28.15 36.7301 28.436C36.5394 28.722 36.4441 29.151 36.4441 29.723C36.4441 30.3023 36.5394 30.735 36.7301 31.021C36.9281 31.307 37.1957 31.45 37.5331 31.45Z" fill="#F48133"/>
</svg>
