<svg width="44" height="44" viewBox="0 0 44 44" fill="none" xmlns="http://www.w3.org/2000/svg">
<path d="M18.0521 37.6718C17.013 37.6718 16.0164 37.259 15.2817 36.5243C14.5469 35.7895 14.1341 34.793 14.1341 33.7539C14.1341 32.7148 14.5469 31.7182 15.2817 30.9835C16.0164 30.2487 17.013 29.8359 18.0521 29.8359C19.0912 29.8359 20.0877 30.2487 20.8225 30.9835C21.5573 31.7182 21.97 32.7148 21.97 33.7539C21.97 34.793 21.5573 35.7895 20.8225 36.5243C20.0877 37.259 19.0912 37.6718 18.0521 37.6718ZM31.7649 37.6718C30.7258 37.6718 29.7293 37.259 28.9945 36.5243C28.2598 35.7895 27.847 34.793 27.847 33.7539C27.847 32.7148 28.2598 31.7182 28.9945 30.9835C29.7293 30.2487 30.7258 29.8359 31.7649 29.8359C32.804 29.8359 33.8006 30.2487 34.5353 30.9835C35.2701 31.7182 35.6829 32.7148 35.6829 33.7539C35.6829 34.793 35.2701 35.7895 34.5353 36.5243C33.8006 37.259 32.804 37.6718 31.7649 37.6718ZM6.22379 10.0953C5.73475 10.0795 5.27102 9.87417 4.93066 9.52266C4.5903 9.17114 4.4 8.70103 4.4 8.21174C4.4 7.72245 4.5903 7.25234 4.93066 6.90083C5.27102 6.54932 5.73475 6.34396 6.22379 6.32819H8.47857C10.2456 6.32819 11.7736 7.55451 12.1575 9.27841L14.6121 20.331C14.9961 22.0549 16.5241 23.2812 18.2911 23.2812H33.0069L35.8318 11.9779H17.5251C17.0407 11.9558 16.5834 11.7478 16.2484 11.3971C15.9134 11.0465 15.7265 10.5802 15.7265 10.0953C15.7265 9.61036 15.9134 9.14409 16.2484 8.79346C16.5834 8.44283 17.0407 8.23483 17.5251 8.21272H35.8318C36.4044 8.21255 36.9696 8.34295 37.4843 8.59401C37.9991 8.84506 38.4498 9.21016 38.8022 9.66155C39.1546 10.1129 39.3995 10.6387 39.5182 11.199C39.6369 11.7592 39.6263 12.3391 39.4872 12.8947L36.6624 24.1941C36.4587 25.0094 35.9883 25.7332 35.3259 26.2504C34.6636 26.7676 33.8473 27.0484 33.0069 27.0483H18.2911C16.5766 27.0485 14.9133 26.464 13.5759 25.3912C12.2384 24.3184 11.3069 22.8216 10.9351 21.1479L8.47857 10.0953H6.22379Z" fill="#23597D"/>
</svg>
